<svg width="96" height="96" viewBox="0 0 96 96" fill="none" xmlns="http://www.w3.org/2000/svg">
<circle cx="48" cy="48" r="48" fill="#FEBD33"/>
<mask id="mask0" mask-type="alpha" maskUnits="userSpaceOnUse" x="0" y="0" width="96" height="96">
<circle cx="48" cy="48" r="48" fill="#C4C4C4"/>
</mask>
<g mask="url(#mask0)">
<path fill-rule="evenodd" clip-rule="evenodd" d="M-28.8 17.4381L37.4315 -10.7998L37.9022 -9.69595L-28.3294 18.542L-28.8 17.4381ZM38.3727 -8.59208L-27.8588 19.6458L-27.3882 20.7497L38.8434 -7.48822L38.3727 -8.59208ZM33.5001 -3.90558L39.3141 -6.38436L39.7847 -5.2805L35.3804 -3.40272L33.5001 -3.90558ZM32.1817 -3.34346L-26.9175 21.8536L-26.4469 22.9574L31.8086 -1.87989L32.1817 -3.34346ZM31.4355 -0.416335L-25.9763 24.0613L-25.5057 25.1651L31.0625 1.04724L31.4355 -0.416335ZM30.6894 2.51084L-25.035 26.269L-24.5643 27.3729L30.3163 3.97441L30.6894 2.51084ZM41.2552 -1.83155L41.0212 -1.89413L41.1966 -1.96892L41.2552 -1.83155ZM11.2899 78.6166L10.9168 80.0801L-0.0914726 84.7735L-0.562103 83.6697L11.2899 78.6166ZM12.036 75.6894L11.663 77.153L-1.03279 82.5658L-1.50342 81.462L12.036 75.6894ZM12.7822 72.7623L12.4091 74.2258L-1.97401 80.3581L-2.44465 79.2542L12.7822 72.7623ZM13.5283 69.8351L13.1552 71.2987L-2.91533 78.1504L-3.38597 77.0465L13.5283 69.8351ZM14.2744 66.908L13.9014 68.3715L-3.85656 75.9427L-4.32719 74.8388L14.2744 66.908ZM15.0206 63.9809L14.6475 65.4444L-4.79778 73.735L-5.26841 72.6311L15.0206 63.9809ZM15.7667 61.0537L15.3936 62.5173L-5.7391 71.5272L-6.20973 70.4234L15.7667 61.0537ZM16.5128 58.1266L16.1398 59.5901L-6.68032 69.3195L-7.15095 68.2156L16.5128 58.1266ZM17.259 55.1994L16.8859 56.663L-7.62164 67.1118L-8.09227 66.0079L17.259 55.1994ZM18.0051 52.2723L17.632 53.7358L-8.56286 64.9041L-9.03349 63.8002L18.0051 52.2723ZM18.7513 49.3451L18.3782 50.8087L-9.50418 62.6964L-9.97482 61.5925L18.7513 49.3451ZM19.4974 46.418L19.1243 47.8815L-10.4454 60.4886L-10.916 59.3848L19.4974 46.418ZM20.2435 43.4908L19.8704 44.9544L-11.3866 58.2809L-11.8573 57.1771L20.2435 43.4908ZM20.9897 40.5637L20.6166 42.0272L-12.3279 56.0732L-12.7986 54.9693L20.9897 40.5637ZM21.7358 37.6366L21.3627 39.1001L-13.2692 53.8655L-13.7398 52.7616L21.7358 37.6366ZM22.4819 34.7094L22.1089 36.173L-14.2105 51.6578L-14.6811 50.5539L22.4819 34.7094ZM23.2281 31.7823L22.855 33.2458L-15.1517 49.45L-15.6223 48.3462L23.2281 31.7823ZM23.9742 28.8551L23.6011 30.3187L-16.0929 47.2423L-16.5636 46.1385L23.9742 28.8551ZM24.7203 25.928L24.3473 27.3915L-17.0343 45.0346L-17.5049 43.9307L24.7203 25.928ZM25.4665 23.0008L25.0934 24.4644L-17.9755 42.8269L-18.4461 41.723L25.4665 23.0008ZM26.2126 20.0737L25.8395 21.5372L-18.9168 40.6192L-19.3874 39.5153L26.2126 20.0737ZM26.9587 17.1465L26.5857 18.6101L-19.858 38.4114L-20.3287 37.3076L26.9587 17.1465ZM27.7049 14.2194L27.3318 15.6829L-20.7993 36.2037L-21.27 35.0999L27.7049 14.2194ZM28.451 11.2923L28.0779 12.7558L-21.7406 33.996L-22.2112 32.8921L28.451 11.2923ZM29.1971 8.36513L28.8241 9.8287L-22.6818 31.7883L-23.1524 30.6844L29.1971 8.36513ZM29.9433 5.43796L29.5702 6.90153L-23.6231 29.5806L-24.0937 28.4767L29.9433 5.43796ZM39.1409 -2.397L37.2606 -2.89986L40.2553 -4.17664L40.7259 -3.07278L39.1409 -2.397Z" fill="#614E25" fill-opacity="0.3"/>
<path fill-rule="evenodd" clip-rule="evenodd" d="M124.055 19.8375L57.8237 -8.40039L57.3531 -7.29653L123.585 20.9414L124.055 19.8375ZM56.8825 -6.19267L123.114 22.0452L122.643 23.1491L56.4119 -5.08881L56.8825 -6.19267ZM61.7552 -1.50616L55.9412 -3.98495L55.4706 -2.88109L59.8749 -1.0033L61.7552 -1.50616ZM63.0736 -0.944045L122.173 24.253L121.702 25.3568L63.4467 0.519528L63.0736 -0.944045ZM63.8197 1.98308L121.232 26.4607L120.761 27.5645L64.1928 3.44665L63.8197 1.98308ZM64.5659 4.91025L120.29 28.6684L119.82 29.7723L64.9389 6.37382L64.5659 4.91025ZM54.0001 0.567867L54.2341 0.505283L54.0587 0.430486L54.0001 0.567867ZM83.9654 81.016L84.3384 82.4796L95.3467 87.173L95.8174 86.0691L83.9654 81.016ZM83.2192 78.0888L83.5923 79.5524L96.288 84.9652L96.7587 83.8614L83.2192 78.0888ZM82.4731 75.1617L82.8462 76.6253L97.2293 82.7575L97.6999 81.6536L82.4731 75.1617ZM81.727 72.2345L82.1 73.6981L98.1706 80.5498L98.6412 79.4459L81.727 72.2345ZM80.9808 69.3074L81.3539 70.771L99.1118 78.3421L99.5824 77.2382L80.9808 69.3074ZM80.2347 66.3803L80.6078 67.8438L100.053 76.1344L100.524 75.0305L80.2347 66.3803ZM79.4886 63.4531L79.8616 64.9167L100.994 73.9266L101.465 72.8228L79.4886 63.4531ZM78.7424 60.526L79.1155 61.9895L101.936 71.7189L102.406 70.6151L78.7424 60.526ZM77.9963 57.5988L78.3693 59.0624L102.877 69.5112L103.348 68.4073L77.9963 57.5988ZM77.2501 54.6717L77.6232 56.1352L103.818 67.3035L104.289 66.1996L77.2501 54.6717ZM76.504 51.7445L76.8771 53.2081L104.759 65.0958L105.23 63.9919L76.504 51.7445ZM75.7579 48.8174L76.1309 50.281L105.701 62.888L106.171 61.7842L75.7579 48.8174ZM75.0117 45.8903L75.3848 47.3538L106.642 60.6803L107.113 59.5765L75.0117 45.8903ZM74.2656 42.9631L74.6387 44.4267L107.583 58.4726L108.054 57.3687L74.2656 42.9631ZM73.5195 40.036L73.8925 41.4995L108.524 56.2649L108.995 55.161L73.5195 40.036ZM72.7733 37.1088L73.1464 38.5724L109.466 54.0572L109.936 52.9533L72.7733 37.1088ZM72.0272 34.1817L72.4003 35.6452L110.407 51.8494L110.878 50.7456L72.0272 34.1817ZM71.2811 31.2545L71.6541 32.7181L111.348 49.6417L111.819 48.5379L71.2811 31.2545ZM70.5349 28.3274L70.908 29.7909L112.29 47.434L112.76 46.3302L70.5349 28.3274ZM69.7888 25.4003L70.1619 26.8638L113.231 45.2263L113.701 44.1224L69.7888 25.4003ZM69.0427 22.4731L69.4157 23.9367L114.172 43.0186L114.643 41.9147L69.0427 22.4731ZM68.2965 19.546L68.6696 21.0095L115.113 40.8109L115.584 39.707L68.2965 19.546ZM67.5504 16.6188L67.9235 18.0824L116.055 38.6031L116.525 37.4993L67.5504 16.6188ZM66.8043 13.6917L67.1773 15.1552L116.996 36.3954L117.466 35.2916L66.8043 13.6917ZM66.0581 10.7645L66.4312 12.2281L117.937 34.1877L118.408 33.0838L66.0581 10.7645ZM65.312 7.83737L65.6851 9.30094L118.878 31.98L119.349 30.8761L65.312 7.83737ZM56.1144 0.00241375L57.9947 -0.500448L55 -1.77723L54.5293 -0.673374L56.1144 0.00241375Z" fill="#614E25" fill-opacity="0.3"/>
<rect x="31.645" y="-1.65527" width="3.6" height="99.0848" transform="rotate(15 31.645 -1.65527)" fill="#614E25"/>
<rect x="46.8" y="66" width="2.39999" height="31.2" rx="1" fill="#614E25"/>
<rect x="46.8" y="37.1992" width="2.39999" height="24" rx="1" fill="#614E25"/>
<rect x="46.8" y="16.7998" width="2.39999" height="15.6" rx="1" fill="#614E25"/>
<rect x="46.8" y="3.59961" width="2.39999" height="8.4" rx="1" fill="#614E25"/>
<rect width="3.6" height="99.0848" transform="matrix(-0.965926 0.258819 0.258819 0.965926 63.9008 -2.40039)" fill="#614E25"/>
</g>
</svg>
